<svg xmlns="http://www.w3.org/2000/svg" width="141.387" height="48.911" viewBox="0 0 141.387 48.911">
  <g id="Logo_White" data-name="Logo White" transform="translate(-139.004 -254.436)">
    <path id="Path_1671" data-name="Path 1671" d="M404.279,302.194a1.879,1.879,0,0,1-.27-.689q-1.412-4.467-2.806-8.941a.612.612,0,0,0-.725-.514,6.676,6.676,0,0,1-1.006,0,.526.526,0,0,0-.609.445c-.655,2.139-1.327,4.272-1.994,6.407-.342,1.092-.685,2.183-1.058,3.368-.235-.759-.442-1.42-.644-2.082q-1.169-3.817-2.33-7.636a.6.6,0,0,0-.7-.5c-.5.027-1.008,0-1.511.007-.437,0-.476.056-.339.479q.615,1.889,1.235,3.776c.979,2.993,1.964,5.984,2.933,8.981a.555.555,0,0,0,.633.47,8.411,8.411,0,0,1,1.162,0,.593.593,0,0,0,.693-.5c.844-2.7,1.7-5.393,2.56-8.089.155-.488.315-.974.5-1.534.061.184.1.281.126.378q1.469,4.653,2.931,9.307a.514.514,0,0,0,.579.434c.412-.017.827-.018,1.24,0a.513.513,0,0,0,.6-.416c.1-.359.225-.711.342-1.064q1.926-5.862,3.853-11.723c.146-.446.108-.5-.344-.5-.531,0-1.06.01-1.589,0a.506.506,0,0,0-.569.439c-.952,3.23-1.92,6.455-2.888,9.7" transform="translate(-142.676 -21.359)"/>
    <path id="Path_1672" data-name="Path 1672" d="M364.78,305.655a12.626,12.626,0,0,0,1.466-.141,4.3,4.3,0,0,0,3.911-4.753,3.315,3.315,0,0,0-1.83-2.856,6.339,6.339,0,0,0-2.3-.612,16.439,16.439,0,0,1-2.831-.393,1.543,1.543,0,0,1-1.259-1.434,1.716,1.716,0,0,1,1.079-1.754,3.944,3.944,0,0,1,1.9-.262,7.058,7.058,0,0,1,3.164,1.033.4.4,0,0,0,.626-.108c.228-.313.48-.608.719-.912.326-.416.324-.482-.131-.776a8.144,8.144,0,0,0-6.776-1.06,3.7,3.7,0,0,0-2.933,3.743,3.446,3.446,0,0,0,2.462,3.644,10.374,10.374,0,0,0,2.542.45,8.233,8.233,0,0,1,2.122.39,1.491,1.491,0,0,1,.977,1.018,1.888,1.888,0,0,1-1.131,2.308,4.761,4.761,0,0,1-2.28.289,6.556,6.556,0,0,1-3.625-1.488.371.371,0,0,0-.613.055c-.287.332-.594.647-.894.968-.353.378-.35.443.044.757a8.752,8.752,0,0,0,5.6,1.9" transform="translate(-124.877 -20.944)"/>
    <path id="Path_1673" data-name="Path 1673" d="M301.4,300.827c.376-.439.739-.862,1.1-1.287s.361-.428.673.034c2.586,3.824,5.695,8.583,8.274,12.412a.785.785,0,0,0,.761.407c.554-.027,1.111,0,1.666-.011.143,0,.333.082.418-.1s-.07-.288-.154-.412c-1.146-1.715-7.65-11.586-9.5-14.333-.15-.222-.164-.357.031-.552.272-.275,2.784-3.226,3.791-4.4.1-.121.208-.185.121-.372-.079-.171-.192-.138-.338-.14-.542-.008-1.086.011-1.628-.008a.971.971,0,0,0-.836.388q-2.183,2.588-4.376,5.169" transform="translate(-92.231 -21.367)"/>
    <path id="Path_1674" data-name="Path 1674" d="M404.279,302.194c.969-3.248,1.936-6.473,2.888-9.7a.506.506,0,0,1,.569-.439c.529.015,1.059,0,1.589,0,.452,0,.491.056.344.5-1.284,3.908-4.1,12.429-4.194,12.788a.513.513,0,0,1-.6.416c-.412-.019-.827-.017-1.24,0a.514.514,0,0,1-.579-.434q-1.455-4.657-2.931-9.307c-.031-.1-.065-.194-.126-.378-.181.56-.342,1.046-.5,1.534-.856,2.7-1.716,5.389-2.56,8.089a.593.593,0,0,1-.693.5,8.411,8.411,0,0,0-1.162,0,.555.555,0,0,1-.633-.47c-.969-3-3.758-11.5-4.168-12.757-.137-.423-.1-.477.339-.479.5,0,1.008.02,1.511-.007a.6.6,0,0,1,.7.5c.769,2.548,2.739,8.959,2.974,9.718.373-1.186,2.4-7.636,3.053-9.775a.526.526,0,0,1,.609-.445,6.676,6.676,0,0,0,1.006,0,.612.612,0,0,1,.725.514c.926,2.983,2.9,9.418,3.075,9.63" transform="translate(-142.676 -21.359)"/>
    <path id="Path_1675" data-name="Path 1675" d="M364.78,305.655a8.752,8.752,0,0,1-5.6-1.9c-.394-.314-.4-.378-.044-.757.3-.321.607-.636.894-.968a.371.371,0,0,1,.613-.055,6.556,6.556,0,0,0,3.625,1.488,4.761,4.761,0,0,0,2.28-.289,1.888,1.888,0,0,0,1.131-2.308,1.491,1.491,0,0,0-.977-1.018,8.233,8.233,0,0,0-2.122-.39,10.374,10.374,0,0,1-2.542-.45,3.446,3.446,0,0,1-2.462-3.644,3.7,3.7,0,0,1,2.933-3.743,8.144,8.144,0,0,1,6.776,1.06c.455.294.457.36.131.776-.239.3-.491.6-.719.912a.4.4,0,0,1-.626.108,7.058,7.058,0,0,0-3.164-1.033,3.944,3.944,0,0,0-1.9.262,1.716,1.716,0,0,0-1.079,1.754A1.543,1.543,0,0,0,363.2,296.9a16.439,16.439,0,0,0,2.831.393,6.339,6.339,0,0,1,2.3.612,3.315,3.315,0,0,1,1.83,2.856,4.3,4.3,0,0,1-3.911,4.753,12.626,12.626,0,0,1-1.466.141" transform="translate(-124.877 -20.944)"/>
    <path id="Path_1676" data-name="Path 1676" d="M330.192,293.631a3.3,3.3,0,0,1,4.113,1.69,4.894,4.894,0,0,1,.3,1.585c.024.289-.072.389-.365.385-.994-.013-1.988-.005-2.983-.005-.471,0-.943-.005-1.414-.007s-.942,0-1.413.017c-.41.014-.49-.121-.478-.5a3.1,3.1,0,0,1,2.237-3.161m-1.868,5.6c1.382.014,2.765.006,4.148.006s2.765-.009,4.147.006c.361,0,.483-.137.47-.481a18.886,18.886,0,0,0-.216-2.855,5.145,5.145,0,0,0-3.47-4.232,6.462,6.462,0,0,0-3.094-.266,4.866,4.866,0,0,0-4.264,3.281,11.591,11.591,0,0,0-.04,7.412,4.8,4.8,0,0,0,3.68,3.352,7.578,7.578,0,0,0,4.014-.119,6.305,6.305,0,0,0,2.96-1.892c.21-.237.243-.425-.028-.646-.331-.268-.646-.557-.951-.855a.37.37,0,0,0-.62.021,4.343,4.343,0,0,1-3.069,1.435,3.4,3.4,0,0,1-3.831-2.427,5.133,5.133,0,0,1-.206-1.372c-.01-.293.081-.373.371-.37" transform="translate(-105.872 -20.958)"/>
    <path id="Path_1677" data-name="Path 1677" d="M449.534,301.338A2.2,2.2,0,0,1,448.1,303.2a4.9,4.9,0,0,1-3.476.146,2.045,2.045,0,0,1,.069-3.873,4.768,4.768,0,0,1,.639-.151,8.189,8.189,0,0,1,1.157-.089c.387-.006.774,0,1.161,0h1.626c.147,0,.292-.008.289.207-.008.632.037,1.27-.03,1.9m2.277-6.425a3.447,3.447,0,0,0-2.74-3.28,10.21,10.21,0,0,0-4.033-.193,6.874,6.874,0,0,0-3.011,1.125.413.413,0,0,0-.15.648c.22.348.429.7.626,1.067.146.27.306.3.556.125a6.157,6.157,0,0,1,4.975-.736,1.77,1.77,0,0,1,1.406,1.385,8.95,8.95,0,0,1,.132,1.846c.02.327-.112.39-.4.385-.917-.014-1.834,0-2.751-.005a8.754,8.754,0,0,0-2.377.258,3.738,3.738,0,0,0-2.889,2.516,4.9,4.9,0,0,0-.187,1.838,3.711,3.711,0,0,0,2.321,3.334,5.125,5.125,0,0,0,1.8.411,4.922,4.922,0,0,0,4.55-1.771c0,.42.01.754,0,1.087-.012.284.112.4.388.4.439-.006.878,0,1.317,0,.5,0,.541-.04.541-.558C451.877,302.221,451.883,295.636,451.811,294.913Z" transform="translate(-171.487 -20.952)"/>
    <path id="Path_1678" data-name="Path 1678" d="M165.547,280.063a4.546,4.546,0,0,1-4.558,4.527l-1.569-.005a4.643,4.643,0,0,1-4.623-4.644,4.736,4.736,0,0,1,4.482-4.729l1.1-.059a6.274,6.274,0,0,1,1.027.029,4.653,4.653,0,0,1,4.145,4.647Zm43.62-25.627H139v48.911h70.163V280.293c0,.113,0,.225-.013.336a4.151,4.151,0,0,1-4.137,3.815H192.769a4.56,4.56,0,0,1-3-1.137,3.169,3.169,0,0,1-1.852,1.137H178.5v.025h-.04a5.551,5.551,0,0,1-4.43,5.413,5.286,5.286,0,0,1-1.717.037l-2.652-.335,0-2.246,3.5.41a3.3,3.3,0,0,0,3.3-3.278h-3.9a4.7,4.7,0,0,1-.242-9.406,20.34,20.34,0,0,1,3.073.1l3.144.346-.032,7.065H182.5v-7.225h2.084v7.225h1.96a1.882,1.882,0,0,0,1.8-1.069,5.822,5.822,0,0,0,.555-2.693v-3.462h2.084v3.435a9.711,9.711,0,0,1-.379,2.869,4.283,4.283,0,0,0,1.029.636,2.974,2.974,0,0,0,1.244.284H195v-2.923a20.194,20.194,0,0,0-.149-2.445v0q-.148-1.556-.338-3.126l1.7-.081q.351,1.543.609,3.275l.005.034a22.188,22.188,0,0,1,.252,3.333v1.936h2.544v.007h5.252a2.236,2.236,0,0,0,2.406-2.154c0-1.526.209-3.233-.585-4.009-.833-.814-1.189-1.2-3.191-1.15l-4.192,0v-1.778l6.142-6.792a1.46,1.46,0,0,1,1.057-.481l1.347-.024a.164.164,0,0,1,.124.273l-5.929,6.545a.169.169,0,0,0,.125.283h1.282a5.365,5.365,0,0,1,2.77.5,4.982,4.982,0,0,1,1.5,1.056c1.225,1.227,1.408,2.784,1.43,4.61"/>
    <path id="Path_1679" data-name="Path 1679" d="M185.011,306.7l-.778-.086-.9.038a2.935,2.935,0,0,0-2.811,2.932,2.792,2.792,0,0,0,2.792,2.792H184.6a2.463,2.463,0,0,0,2.462-2.451l0-.919a2.31,2.31,0,0,0-2.058-2.307" transform="translate(-23.582 -29.634)"/>
    <path id="Path_1680" data-name="Path 1680" d="M213.375,306.356a2.935,2.935,0,0,0-2.811,2.933,2.792,2.792,0,0,0,2.792,2.792h3.737l.025-5.449-2.845-.313Z" transform="translate(-40.642 -29.466)"/>
  </g>
</svg>
