<svg xmlns="http://www.w3.org/2000/svg" width="24.8" height="24.794" viewBox="0 0 24.8 24.794">
  <path id="search_icon" data-name="search icon" d="M372.133,648.884a10.587,10.587,0,0,0-14.954-.06,10.419,10.419,0,0,0-3.067,7.468A10.668,10.668,0,0,0,364.771,666.9a10.419,10.419,0,0,0,6.876-2.558l5.2,5.2a.742.742,0,0,0,1.049-1.049l-5.2-5.2a10.413,10.413,0,0,0,2.563-6.922A10.589,10.589,0,0,0,372.133,648.884Zm-.989,13.9a8.944,8.944,0,0,1-6.372,2.628h-.042a9.186,9.186,0,0,1-9.134-9.13,8.979,8.979,0,0,1,9-9.039,9.185,9.185,0,0,1,9.176,9.131A8.944,8.944,0,0,1,371.143,662.787Z" transform="translate(-353.712 -645.361)" stroke="#000" stroke-width="0.8"/>
</svg>
