<svg xmlns="http://www.w3.org/2000/svg" width="30" height="25.734" viewBox="0 0 30 25.734">
  <g id="Cart" transform="translate(-225 -929.86)">
    <g id="cart_icon" data-name="cart icon" transform="translate(226 929.429)">
      <path id="Path_1647" data-name="Path 1647" d="M711.468,166.916h4.9l4.739,15.361a.927.927,0,0,0,.884.665h14.327a.935.935,0,0,0,.889-.684l3.3-11.5a.978.978,0,0,0-.146-.84.922.922,0,0,0-.743-.383H725.541a.954.954,0,0,0,0,1.907h12.832l-2.75,9.595H722.67l-4.739-15.36a.927.927,0,0,0-.884-.665h-5.579a.954.954,0,0,0,0,1.907Z" transform="translate(-711.541 -164.578)" fill="#b3b3b3"/>
      <path id="Path_1648" data-name="Path 1648" d="M738.92,210.208a3.436,3.436,0,1,0-3.436,3.414A3.429,3.429,0,0,0,738.92,210.208Zm-1.744,0a1.692,1.692,0,1,1-1.692-1.669A1.682,1.682,0,0,1,737.175,210.208Z" transform="translate(-723.357 -187.457)" fill="#b3b3b3"/>
      <path id="Path_1649" data-name="Path 1649" d="M757.946,210.208a3.436,3.436,0,1,0,3.436-3.413A3.429,3.429,0,0,0,757.946,210.208Zm1.744,0a1.692,1.692,0,1,1,1.691,1.669A1.682,1.682,0,0,1,759.69,210.208Z" transform="translate(-737.449 -187.457)" fill="#b3b3b3"/>
    </g>
  </g>
</svg>
