<svg xmlns="http://www.w3.org/2000/svg" width="30.5" height="30.582" viewBox="0 0 30.5 30.582">
  <g id="Categories" transform="translate(-134.75 -927.664)">
    <g id="categories_icon" data-name="categories icon" transform="translate(27.258 695.368)">
      <path id="Path_1660" data-name="Path 1660" d="M117.9,245.5h-7.35a2.81,2.81,0,0,1-2.807-2.807v-7.259a2.81,2.81,0,0,1,2.807-2.807h7.35a2.81,2.81,0,0,1,2.806,2.807V242.7A2.81,2.81,0,0,1,117.9,245.5Zm-7.35-10.7a.635.635,0,0,0-.634.633V242.7a.635.635,0,0,0,.634.633h7.35a.634.634,0,0,0,.633-.633v-7.259a.634.634,0,0,0-.633-.633Zm0,0" transform="translate(0 0)" fill="#b3b3b3" stroke="#f9f7f7" stroke-width="0.5"/>
      <path id="Path_1661" data-name="Path 1661" d="M118.349,461.586H111a2.811,2.811,0,0,1-2.808-2.807v-7.258A2.811,2.811,0,0,1,111,448.714h7.35a2.81,2.81,0,0,1,2.8,2.807v7.258a2.81,2.81,0,0,1-2.8,2.807Zm-7.35-10.7a.635.635,0,0,0-.634.633v7.258a.635.635,0,0,0,.634.634h7.35a.635.635,0,0,0,.633-.634v-7.258a.634.634,0,0,0-.633-.633Zm0,0" transform="translate(-0.413 -198.958)" fill="#b3b3b3" stroke="#f9f7f7" stroke-width="0.5"/>
      <path id="Path_1662" data-name="Path 1662" d="M332.821,461.586h-7.35a2.811,2.811,0,0,1-2.807-2.807v-7.258a2.81,2.81,0,0,1,2.807-2.807h7.35a2.81,2.81,0,0,1,2.807,2.807v7.258a2.81,2.81,0,0,1-2.807,2.807Zm-7.35-10.694a.635.635,0,0,0-.634.633v7.258a.635.635,0,0,0,.634.634h7.35a.635.635,0,0,0,.633-.634v-7.262a.634.634,0,0,0-.633-.633Zm0,0" transform="translate(-197.89 -198.958)" fill="#b3b3b3" stroke="#f9f7f7" stroke-width="0.5"/>
      <path id="Path_1663" data-name="Path 1663" d="M330.318,245.557a6.434,6.434,0,1,1,6.482-6.434,6.435,6.435,0,0,1-6.482,6.434Zm0-10.694a4.26,4.26,0,1,0,4.308,4.26,4.26,4.26,0,0,0-4.308-4.26Zm0,0" transform="translate(-199.057 -0.052)" fill="#b3b3b3" stroke="#f9f7f7" stroke-width="0.5"/>
    </g>
  </g>
</svg>
