<svg xmlns="http://www.w3.org/2000/svg" width="19.056" height="18" viewBox="0 0 19.056 18">
  <path id="filter_icon" data-name="filter icon" d="M142.79,286.89a.706.706,0,0,1-.706-.706V279.4l-6.543-7.2a1.98,1.98,0,0,1,1.465-3.311h15.1a1.98,1.98,0,0,1,1.465,3.311l-6.543,7.2v3.963a.706.706,0,0,1-.265.551l-3.529,2.824a.707.707,0,0,1-.441.155ZM137.005,270.3a.568.568,0,0,0-.42.949l6.727,7.412a.7.7,0,0,1,.184.462v5.591l2.118-1.708v-3.882a.706.706,0,0,1,.184-.477l6.727-7.412a.568.568,0,0,0-.42-.935Zm0,0" transform="translate(-135.027 -268.89)" fill="#858585"/>
</svg>
