<svg xmlns="http://www.w3.org/2000/svg" width="13.982" height="12.439" viewBox="0 0 13.982 12.439">
  <path id="wishlist_icon" data-name="wishlist icon" d="M539.9,471.25l-.359.354-.359-.354a3.864,3.864,0,0,0-5.41,0,3.753,3.753,0,0,0,0,5.354l.619.611h0l4.888,4.826a.371.371,0,0,0,.521,0l4.888-4.826h0l.619-.611a3.753,3.753,0,0,0,0-5.354A3.865,3.865,0,0,0,539.9,471.25Zm4.27,5.437h0l-4.628,4.568-4.628-4.568h0l-.62-.611a3.011,3.011,0,0,1,0-4.3,3.12,3.12,0,0,1,4.367,0l.616.608h0l0,0a.346.346,0,0,0,.258.107h.005c.013,0,.025,0,.038,0l.031,0a.367.367,0,0,0,.041-.012l.029-.009a.365.365,0,0,0,.037-.019c.009-.005.019-.009.028-.015a.413.413,0,0,0,.034-.027c.007-.006.015-.011.022-.018l.619-.611a3.12,3.12,0,0,1,4.367,0,3.01,3.01,0,0,1,0,4.3Z" transform="translate(-532.552 -469.809)" stroke="#000" stroke-width="0.2"/>
</svg>
