<svg xmlns="http://www.w3.org/2000/svg" width="13.779" height="12" viewBox="0 0 13.779 12">
  <g id="wishlist_filled" data-name="wishlist filled" transform="translate(0)">
    <path id="wishlist_icon" data-name="wishlist icon" d="M539.9,471.25l-.359.354-.359-.354a3.863,3.863,0,0,0-5.408,0,3.752,3.752,0,0,0,0,5.352l.619.611h0l4.887,4.824a.371.371,0,0,0,.521,0l4.887-4.824h0l.619-.611a3.752,3.752,0,0,0,0-5.352A3.864,3.864,0,0,0,539.9,471.25Zm4.268,5.435h0l-4.627,4.567-4.626-4.567h0l-.619-.611a3.01,3.01,0,0,1,0-4.3,3.12,3.12,0,0,1,4.366,0l.616.608h0l0,0a.346.346,0,0,0,.258.107h.005c.013,0,.025,0,.038,0l.031,0a.377.377,0,0,0,.041-.012l.029-.009a.365.365,0,0,0,.037-.019c.009-.005.019-.009.028-.015s.022-.018.034-.027.015-.011.022-.018l.619-.611a3.12,3.12,0,0,1,4.366,0,3.01,3.01,0,0,1,0,4.3Z" transform="translate(-532.652 -470.145)"/>
    <path id="Path_1694" data-name="Path 1694" d="M390.209,1678.4s-3.161-2.76-5.088-.365,0,5.156.781,5.885,4.307,3.854,4.307,3.854l5.693-5.937s2.083-3.8-2.031-4.739A4.481,4.481,0,0,0,390.209,1678.4Z" transform="translate(-383.32 -1676.47)" stroke="#000" stroke-width="1"/>
  </g>
</svg>
