 <svg xmlns="http://www.w3.org/2000/svg" width="30" height="30" viewBox="0 0 30 30">
  <g id="Home" transform="translate(-45 -928)">
    <path id="home_icon_filled" data-name="home icon filled" d="M72.188,181.843a2.746,2.746,0,0,1-1.953.809h-.452v9.006a3.236,3.236,0,0,1-3.233,3.232H61.761a.879.879,0,0,1-.879-.879v-7.06a1.476,1.476,0,0,0-1.475-1.475H56.583a1.476,1.476,0,0,0-1.475,1.475v7.06a.879.879,0,0,1-.879.879H49.441a3.236,3.236,0,0,1-3.233-3.232v-9.006H45.72a.836.836,0,0,1-.085,0,2.761,2.761,0,0,1-1.838-4.705l.012-.012L56.042,165.7a2.761,2.761,0,0,1,3.906,0l12.239,12.237,0,0A2.767,2.767,0,0,1,72.188,181.843Z" transform="translate(2.005 763.11)"/>
  </g>
</svg>
