<svg xmlns="http://www.w3.org/2000/svg" width="18.2" height="18.2" viewBox="0 0 18.2 18.2">
  <g id="sort_icon" data-name="sort icon" transform="translate(-293.79 187.1) rotate(-90)">
    <path id="Path_1672" data-name="Path 1672" d="M171.821,299.032v-4.58a.564.564,0,0,0-1.129,0v4.58a2.237,2.237,0,0,0,0,4.34v7.955a.564.564,0,0,0,1.129,0v-7.955a2.237,2.237,0,0,0,0-4.34Zm-.564,3.3a1.125,1.125,0,1,1,1.129-1.125,1.128,1.128,0,0,1-1.129,1.125Zm0,0" transform="translate(0 0)" fill="#858585" stroke="#858585" stroke-width="0.2"/>
    <path id="Path_1673" data-name="Path 1673" d="M267.821,302.97v-8.517a.564.564,0,0,0-1.129,0v8.517a2.237,2.237,0,0,0,0,4.34v4.017a.564.564,0,0,0,1.129,0V307.31a2.237,2.237,0,0,0,0-4.34Zm-.564,3.3a1.125,1.125,0,1,1,1.129-1.125,1.128,1.128,0,0,1-1.129,1.125Zm0,0" transform="translate(-89.257 0)" fill="#858585" stroke="#858585" stroke-width="0.2"/>
    <path id="Path_1674" data-name="Path 1674" d="M365.514,301.2a2.249,2.249,0,0,0-1.693-2.17v-4.58a.564.564,0,0,0-1.129,0v4.58a2.237,2.237,0,0,0,0,4.34v7.955a.564.564,0,0,0,1.129,0v-7.955a2.249,2.249,0,0,0,1.693-2.17Zm-2.257,1.125a1.125,1.125,0,1,1,1.129-1.125,1.128,1.128,0,0,1-1.129,1.125Zm0,0" transform="translate(-178.514 0)" fill="#858585" stroke="#858585" stroke-width="0.2"/>
  </g>
</svg>
