<svg xmlns="http://www.w3.org/2000/svg" width="30.7" height="26.825" viewBox="0 0 30.7 26.825">
  <g id="Wishlist" transform="translate(-315.15 -929.062)">
    <path id="wishlist_icon" data-name="wishlist icon" d="M548.433,472.55l-.781.771-.781-.771a8.411,8.411,0,0,0-11.775,0,8.169,8.169,0,0,0,0,11.654l1.348,1.33h0l10.64,10.5a.808.808,0,0,0,1.135,0l10.64-10.5h0l1.348-1.331a8.168,8.168,0,0,0,0-11.654A8.413,8.413,0,0,0,548.433,472.55Zm9.293,11.834h0l-10.073,9.943-10.073-9.943h0l-1.349-1.331a6.553,6.553,0,0,1,0-9.354,6.792,6.792,0,0,1,9.506,0l1.341,1.323h0l.007.006a.753.753,0,0,0,.561.232h.011c.028,0,.055-.006.083-.009s.045,0,.067-.007a.793.793,0,0,0,.089-.025c.02-.007.042-.011.062-.019a.8.8,0,0,0,.08-.042c.02-.011.041-.02.06-.033a.928.928,0,0,0,.073-.059c.016-.013.033-.024.048-.039l1.348-1.331a6.792,6.792,0,0,1,9.506,0,6.553,6.553,0,0,1,0,9.354Z" transform="translate(-217.152 459.267)" fill="#b3b3b3" stroke="#b3b3b3" stroke-width="0.7"/>
  </g>
</svg>
